<svg width="20" height="19" viewBox="0 0 20 19" fill="none" xmlns="http://www.w3.org/2000/svg">
<path d="M20 6.23001C20 7.42001 19.81 8.52001 19.48 9.54001C19.42 9.75001 19.17 9.81001 18.99 9.68001C17.8927 8.87018 16.5638 8.43537 15.2 8.44001C11.73 8.44001 8.9 11.27 8.9 14.74C8.9 15.82 9.18 16.88 9.71 17.82C9.87 18.1 9.68 18.46 9.38 18.35C6.97 17.53 2.1 14.54 0.52 9.54001C0.19 8.52001 0 7.42001 0 6.23001C0 3.14001 2.49 0.640015 5.56 0.640015C7.37 0.640015 8.99 1.52001 10 2.87001C10.5159 2.17883 11.1857 1.61741 11.9565 1.23031C12.7272 0.843213 13.5775 0.6411 14.44 0.640015C17.51 0.640015 20 3.14001 20 6.23001Z" fill="black"/>
</svg>
