<svg width="17" height="17" viewBox="0 0 17 17" fill="none" xmlns="http://www.w3.org/2000/svg">
<path d="M8.49992 8.50002C9.43923 8.50002 10.3401 8.12688 11.0043 7.46269C11.6684 6.7985 12.0416 5.89766 12.0416 4.95835C12.0416 4.01905 11.6684 3.11821 11.0043 2.45402C10.3401 1.78983 9.43923 1.41669 8.49992 1.41669C7.56061 1.41669 6.65977 1.78983 5.99558 2.45402C5.33139 3.11821 4.95825 4.01905 4.95825 4.95835C4.95825 5.89766 5.33139 6.7985 5.99558 7.46269C6.65977 8.12688 7.56061 8.50002 8.49992 8.50002Z" stroke="black" stroke-width="1.5" stroke-linecap="round" stroke-linejoin="round"/>
<path d="M13.6071 11.1492L11.0996 13.6567C11.0005 13.7558 10.9084 13.94 10.8871 14.0746L10.7526 15.0308C10.703 15.3779 10.9438 15.6188 11.2909 15.5692L12.2471 15.4346C12.3817 15.4133 12.573 15.3213 12.6651 15.2221L15.1726 12.7146C15.6046 12.2825 15.8101 11.7796 15.1726 11.1421C14.5421 10.5117 14.0392 10.7171 13.6071 11.1492Z" stroke="black" stroke-width="1.5" stroke-miterlimit="10" stroke-linecap="round" stroke-linejoin="round"/>
<path d="M13.2458 11.5104C13.4583 12.2754 14.0533 12.8704 14.8183 13.0829" stroke="black" stroke-width="1.5" stroke-miterlimit="10" stroke-linecap="round" stroke-linejoin="round"/>
<path d="M2.41553 15.5833C2.41553 12.8421 5.14261 10.625 8.50011 10.625C9.23678 10.625 9.94511 10.7313 10.6039 10.9296" stroke="black" stroke-width="1.5" stroke-linecap="round" stroke-linejoin="round"/>
</svg>
